<svg xmlns="http://www.w3.org/2000/svg" xmlns:xlink="http://www.w3.org/1999/xlink" width="500" zoomAndPan="magnify" viewBox="0 0 375 374.999991" height="500" preserveAspectRatio="xMidYMid meet" version="1.0"><defs><g/><clipPath id="9264632684"><path d="M 97.195312 199 L 153 199 L 153 230 L 97.195312 230 Z M 97.195312 199 " clip-rule="nonzero"/></clipPath><clipPath id="ace0591d9b"><path d="M 222 199 L 277.945312 199 L 277.945312 230 L 222 230 Z M 222 199 " clip-rule="nonzero"/></clipPath><clipPath id="9ea9131001"><path d="M 186 55.199219 L 189 55.199219 L 189 211 L 186 211 Z M 186 55.199219 " clip-rule="nonzero"/></clipPath><clipPath id="72bc9028df"><path d="M 159 233 L 216 233 L 216 263.699219 L 159 263.699219 Z M 159 233 " clip-rule="nonzero"/></clipPath><clipPath id="cfb86ff4fe"><rect x="0" width="183" y="0" height="49"/></clipPath></defs><rect x="-37.5" width="450" fill="#ffffff" y="-37.499999" height="449.999989" fill-opacity="1"/><rect x="-37.5" width="450" fill="#1c1a26" y="-37.499999" height="449.999989" fill-opacity="1"/><g clip-path="url(#9264632684)"><path fill="#5d1ec4" d="M 152.492188 214.664062 L 124.867188 199.667969 L 97.257812 214.664062 L 124.867188 229.671875 Z M 152.492188 214.664062 " fill-opacity="1" fill-rule="evenodd"/></g><path fill="#5d1ec4" d="M 183.796875 231.683594 L 156.1875 216.675781 L 128.574219 231.683594 L 156.1875 246.679688 Z M 183.796875 231.683594 " fill-opacity="1" fill-rule="evenodd"/><path fill="#5d1ec4" d="M 187.503906 72.800781 L 218.8125 89.808594 L 187.503906 106.824219 L 156.1875 89.808594 Z M 187.503906 72.800781 " fill-opacity="1" fill-rule="evenodd"/><path fill="#5d1ec4" d="M 246.433594 231.683594 L 218.8125 216.675781 L 191.203125 231.683594 L 218.8125 246.679688 Z M 246.433594 231.683594 " fill-opacity="1" fill-rule="evenodd"/><g clip-path="url(#ace0591d9b)"><path fill="#5d1ec4" d="M 277.742188 214.664062 L 250.128906 199.667969 L 222.519531 214.664062 L 250.128906 229.671875 Z M 277.742188 214.664062 " fill-opacity="1" fill-rule="evenodd"/></g><path fill="#5d1ec4" d="M 156.1875 153.578125 L 187.503906 136.570312 L 156.1875 119.550781 L 124.867188 136.570312 Z M 156.1875 153.578125 " fill-opacity="1" fill-rule="evenodd"/><path fill="#5d1ec4" d="M 218.8125 183.347656 L 250.128906 166.339844 L 218.8125 136.570312 L 187.503906 166.339844 Z M 218.8125 183.347656 " fill-opacity="1" fill-rule="evenodd"/><path fill="#5d1ec4" d="M 187.503906 229.671875 L 215.117188 214.664062 L 187.503906 199.667969 L 159.882812 214.664062 Z M 187.503906 229.671875 " fill-opacity="1" fill-rule="evenodd"/><path fill="#5d1ec4" d="M 123.980469 104.386719 L 125.757812 104.386719 L 125.757812 202.644531 L 123.980469 202.644531 Z M 123.980469 104.386719 " fill-opacity="1" fill-rule="evenodd"/><path fill="#5d1ec4" d="M 155.300781 68.9375 L 157.074219 68.9375 L 157.074219 222.257812 L 155.300781 222.257812 Z M 155.300781 68.9375 " fill-opacity="1" fill-rule="evenodd"/><g clip-path="url(#9ea9131001)"><path fill="#5d1ec4" d="M 186.617188 55.199219 L 188.394531 55.199219 L 188.394531 210.742188 L 186.617188 210.742188 Z M 186.617188 55.199219 " fill-opacity="1" fill-rule="evenodd"/></g><path fill="#5d1ec4" d="M 217.925781 75.011719 L 219.699219 75.011719 L 219.699219 222.707031 L 217.925781 222.707031 Z M 217.925781 75.011719 " fill-opacity="1" fill-rule="evenodd"/><path fill="#5d1ec4" d="M 249.242188 121.664062 L 251.019531 121.664062 L 251.019531 204.53125 L 249.242188 204.53125 Z M 249.242188 121.664062 " fill-opacity="1" fill-rule="evenodd"/><g clip-path="url(#72bc9028df)"><path fill="#5d1ec4" d="M 215.117188 248.6875 L 187.503906 233.691406 L 159.882812 248.6875 L 187.503906 263.6875 Z M 215.117188 248.6875 " fill-opacity="1" fill-rule="evenodd"/></g><g transform="matrix(1, 0, 0, 1, 100, 272)"><g clip-path="url(#cfb86ff4fe)"><g fill="#fdfdfb" fill-opacity="1"><g transform="translate(0.982165, 38.026981)"><g><path d="M 21.578125 -7.296875 L 6.359375 -7.296875 L 3.078125 0 L 0.078125 0 L 12.5625 -27.328125 L 15.421875 -27.328125 L 27.90625 0 L 24.859375 0 Z M 20.53125 -9.640625 L 13.96875 -24.3125 L 7.421875 -9.640625 Z M 20.53125 -9.640625 "/></g></g></g><g fill="#fdfdfb" fill-opacity="1"><g transform="translate(36.770638, 38.026981)"><g><path d="M 23.109375 0 L 16.859375 -8.78125 C 16.160156 -8.707031 15.429688 -8.671875 14.671875 -8.671875 L 7.34375 -8.671875 L 7.34375 0 L 4.453125 0 L 4.453125 -27.328125 L 14.671875 -27.328125 C 18.160156 -27.328125 20.894531 -26.492188 22.875 -24.828125 C 24.851562 -23.160156 25.84375 -20.867188 25.84375 -17.953125 C 25.84375 -15.816406 25.300781 -14.015625 24.21875 -12.546875 C 23.132812 -11.078125 21.59375 -10.019531 19.59375 -9.375 L 26.265625 0 Z M 14.59375 -11.125 C 17.300781 -11.125 19.367188 -11.722656 20.796875 -12.921875 C 22.234375 -14.117188 22.953125 -15.796875 22.953125 -17.953125 C 22.953125 -20.160156 22.234375 -21.859375 20.796875 -23.046875 C 19.367188 -24.234375 17.300781 -24.828125 14.59375 -24.828125 L 7.34375 -24.828125 L 7.34375 -11.125 Z M 14.59375 -11.125 "/></g></g></g><g fill="#fdfdfb" fill-opacity="1"><g transform="translate(72.793272, 38.026981)"><g><path d="M 12.921875 -12.84375 L 7.34375 -7.1875 L 7.34375 0 L 4.453125 0 L 4.453125 -27.328125 L 7.34375 -27.328125 L 7.34375 -10.8125 L 23.375 -27.328125 L 26.703125 -27.328125 L 14.875 -14.953125 L 27.515625 0 L 24.078125 0 Z M 12.921875 -12.84375 "/></g></g></g><g fill="#fdfdfb" fill-opacity="1"><g transform="translate(108.347583, 38.026981)"><g><path d="M 27.28125 -27.328125 L 27.28125 0 L 24.4375 0 L 24.4375 -12.609375 L 7.34375 -12.609375 L 7.34375 0 L 4.453125 0 L 4.453125 -27.328125 L 7.34375 -27.328125 L 7.34375 -15.140625 L 24.4375 -15.140625 L 24.4375 -27.328125 Z M 27.28125 -27.328125 "/></g></g></g><g fill="#fdfdfb" fill-opacity="1"><g transform="translate(147.882604, 38.026981)"><g><path d="M 23.765625 -2.5 L 23.765625 0 L 4.453125 0 L 4.453125 -27.328125 L 23.1875 -27.328125 L 23.1875 -24.828125 L 7.34375 -24.828125 L 7.34375 -15.109375 L 21.46875 -15.109375 L 21.46875 -12.640625 L 7.34375 -12.640625 L 7.34375 -2.5 Z M 23.765625 -2.5 "/></g></g></g></g></g></svg>