<svg xmlns="http://www.w3.org/2000/svg" xmlns:xlink="http://www.w3.org/1999/xlink" width="500" zoomAndPan="magnify" viewBox="0 0 375 374.999991" height="500" preserveAspectRatio="xMidYMid meet" version="1.0"><defs><clipPath id="568fb7aacd"><path d="M 51.355469 248 L 135 248 L 135 294 L 51.355469 294 Z M 51.355469 248 " clip-rule="nonzero"/></clipPath><clipPath id="f6d2306d00"><path d="M 240 248 L 323.605469 248 L 323.605469 294 L 240 294 Z M 240 248 " clip-rule="nonzero"/></clipPath><clipPath id="bdd2ed6dff"><path d="M 186 30.332031 L 189 30.332031 L 189 265 L 186 265 Z M 186 30.332031 " clip-rule="nonzero"/></clipPath><clipPath id="4780148c84"><path d="M 145 299 L 230 299 L 230 344.582031 L 145 344.582031 Z M 145 299 " clip-rule="nonzero"/></clipPath></defs><g clip-path="url(#568fb7aacd)"><path fill="#8b50da" d="M 134.714844 270.757812 L 93.070312 248.148438 L 51.441406 270.757812 L 93.070312 293.382812 Z M 134.714844 270.757812 " fill-opacity="1" fill-rule="evenodd"/></g><path fill="#8b50da" d="M 181.917969 296.414062 L 140.289062 273.789062 L 98.660156 296.414062 L 140.289062 319.023438 Z M 181.917969 296.414062 " fill-opacity="1" fill-rule="evenodd"/><path fill="#8b50da" d="M 187.507812 56.871094 L 234.707031 82.511719 L 187.507812 108.171875 L 140.289062 82.511719 Z M 187.507812 56.871094 " fill-opacity="1" fill-rule="evenodd"/><path fill="#8b50da" d="M 276.351562 296.414062 L 234.707031 273.789062 L 193.078125 296.414062 L 234.707031 319.023438 Z M 276.351562 296.414062 " fill-opacity="1" fill-rule="evenodd"/><g clip-path="url(#f6d2306d00)"><path fill="#8b50da" d="M 323.550781 270.757812 L 281.925781 248.148438 L 240.296875 270.757812 L 281.925781 293.382812 Z M 323.550781 270.757812 " fill-opacity="1" fill-rule="evenodd"/></g><path fill="#8b50da" d="M 140.289062 178.660156 L 187.507812 153.019531 L 140.289062 127.359375 L 93.070312 153.019531 Z M 140.289062 178.660156 " fill-opacity="1" fill-rule="evenodd"/><path fill="#8b50da" d="M 234.707031 223.539062 L 281.925781 197.898438 L 234.707031 153.019531 L 187.507812 197.898438 Z M 234.707031 223.539062 " fill-opacity="1" fill-rule="evenodd"/><path fill="#8b50da" d="M 187.507812 293.382812 L 229.132812 270.757812 L 187.507812 248.148438 L 145.859375 270.757812 Z M 187.507812 293.382812 " fill-opacity="1" fill-rule="evenodd"/><path fill="#8b50da" d="M 91.734375 104.496094 L 94.410156 104.496094 L 94.410156 252.636719 L 91.734375 252.636719 Z M 91.734375 104.496094 " fill-opacity="1" fill-rule="evenodd"/><path fill="#8b50da" d="M 138.949219 51.046875 L 141.625 51.046875 L 141.625 282.207031 L 138.949219 282.207031 Z M 138.949219 51.046875 " fill-opacity="1" fill-rule="evenodd"/><g clip-path="url(#bdd2ed6dff)"><path fill="#8b50da" d="M 186.167969 30.332031 L 188.84375 30.332031 L 188.84375 264.847656 L 186.167969 264.847656 Z M 186.167969 30.332031 " fill-opacity="1" fill-rule="evenodd"/></g><path fill="#8b50da" d="M 233.367188 60.207031 L 236.042969 60.207031 L 236.042969 282.882812 L 233.367188 282.882812 Z M 233.367188 60.207031 " fill-opacity="1" fill-rule="evenodd"/><path fill="#8b50da" d="M 280.585938 130.542969 L 283.261719 130.542969 L 283.261719 255.480469 L 280.585938 255.480469 Z M 280.585938 130.542969 " fill-opacity="1" fill-rule="evenodd"/><g clip-path="url(#4780148c84)"><path fill="#8b50da" d="M 229.132812 322.054688 L 187.507812 299.445312 L 145.859375 322.054688 L 187.507812 344.664062 Z M 229.132812 322.054688 " fill-opacity="1" fill-rule="evenodd"/></g></svg>